<svg width="20" height="21" viewBox="0 0 20 21" fill="none" xmlns="http://www.w3.org/2000/svg">
<g id="icon/document-cert-file-list-memo">
<path id="Vector" d="M15.8327 18.8334H4.16602C3.50297 18.8334 2.86709 18.57 2.39825 18.1012C1.92941 17.6323 1.66602 16.9965 1.66602 16.3334V3.00008C1.66602 2.77907 1.75381 2.56711 1.91009 2.41083C2.06637 2.25455 2.27834 2.16675 2.49935 2.16675H14.166C14.387 2.16675 14.599 2.25455 14.7553 2.41083C14.9116 2.56711 14.9993 2.77907 14.9993 3.00008V13.0001H18.3327V16.3334C18.3327 16.9965 18.0693 17.6323 17.6004 18.1012C17.1316 18.57 16.4957 18.8334 15.8327 18.8334ZM14.9993 14.6667V16.3334C14.9993 16.5544 15.0871 16.7664 15.2434 16.9227C15.3997 17.079 15.6117 17.1667 15.8327 17.1667C16.0537 17.1667 16.2657 17.079 16.4219 16.9227C16.5782 16.7664 16.666 16.5544 16.666 16.3334V14.6667H14.9993ZM13.3327 17.1667V3.83341H3.33268V16.3334C3.33268 16.5544 3.42048 16.7664 3.57676 16.9227C3.73304 17.079 3.945 17.1667 4.16602 17.1667H13.3327ZM4.99935 6.33341H11.666V8.00008H4.99935V6.33341ZM4.99935 9.66675H11.666V11.3334H4.99935V9.66675ZM4.99935 13.0001H9.16602V14.6667H4.99935V13.0001Z" fill="#178477"/>
</g>
</svg>
