<svg width="24" height="24" viewBox="0 0 24 24" fill="none" xmlns="http://www.w3.org/2000/svg">
<g id="wrapper">
<path id="Union" d="M9.36991 10.6831C10.3082 12.3316 11.6734 13.6968 13.3219 14.6351L14.2059 13.3971C14.3481 13.198 14.5583 13.058 14.7967 13.0034C15.0352 12.9489 15.2853 12.9836 15.4999 13.1011C16.9142 13.874 18.4761 14.3389 20.0829 14.4651C20.3337 14.485 20.5678 14.5986 20.7385 14.7834C20.9092 14.9682 21.0039 15.2105 21.0039 15.4621V19.9241C21.004 20.1717 20.9122 20.4105 20.7463 20.5943C20.5804 20.7781 20.3522 20.8938 20.1059 20.9191C19.5759 20.9741 19.0419 21.0011 18.5039 21.0011C9.94391 21.0011 3.00391 14.0611 3.00391 5.5011C3.00391 4.9631 3.03091 4.4291 3.08591 3.8991C3.11116 3.6528 3.22689 3.42462 3.4107 3.25873C3.5945 3.09285 3.83331 3.00105 4.08091 3.0011H8.54291C8.79447 3.00107 9.0368 3.09585 9.22159 3.26655C9.40637 3.43725 9.52003 3.67132 9.53991 3.9221C9.66613 5.52889 10.131 7.09078 10.9039 8.5051C11.0214 8.71966 11.0561 8.96984 11.0016 9.20829C10.947 9.44675 10.807 9.65694 10.6079 9.7991L9.36991 10.6831ZM6.84791 10.0261L8.74791 8.6691C8.20869 7.50519 7.83926 6.26994 7.65091 5.0011H5.01391C5.00791 5.1671 5.00491 5.3341 5.00491 5.5011C5.00391 12.9571 11.0479 19.0011 18.5039 19.0011C18.6709 19.0011 18.8379 18.9981 19.0039 18.9911V16.3541C17.7351 16.1657 16.4998 15.7963 15.3359 15.2571L13.9789 17.1571C13.4326 16.9448 12.9019 16.6942 12.3909 16.4071L12.3329 16.3741C10.3715 15.2578 8.74719 13.6335 7.63091 11.6721L7.59791 11.6141C7.31081 11.1031 7.06019 10.5724 6.84791 10.0261Z" fill="#333333"/>
</g>
</svg>
