<svg width="19" height="18" viewBox="0 0 19 18" fill="none" xmlns="http://www.w3.org/2000/svg">
<g id="icon/info-circle">
<g id="Vector">
<path d="M10.7048 13.0789C11.0017 13.0789 11.2422 12.8383 11.2422 12.5415C11.2422 12.2446 11.0017 12.0041 10.7048 12.0041H10.1853V8.31371C10.1853 8.01686 9.94474 7.77628 9.64789 7.77628H8.59097C8.29412 7.77628 8.05354 8.01686 8.05354 8.31371C8.05354 8.61056 8.29412 8.85114 8.59097 8.85114H9.11045V12.0041H8.59097C8.29412 12.0041 8.05354 12.2446 8.05354 12.5415C8.05354 12.8383 8.29412 13.0789 8.59097 13.0789H10.7048Z" fill="#333333"/>
<path d="M9.44379 6.75002C9.90978 6.75002 10.2875 6.37226 10.2875 5.90627C10.2875 5.44027 9.90978 5.06252 9.44379 5.06252C8.9778 5.06252 8.60004 5.44027 8.60004 5.90627C8.60004 6.37226 8.9778 6.75002 9.44379 6.75002Z" fill="#333333"/>
<path fill-rule="evenodd" clip-rule="evenodd" d="M9.5 1.50006C5.36 1.50006 2 4.86006 2 9.00006C2 13.1401 5.36 16.5001 9.5 16.5001C13.64 16.5001 17 13.1401 17 9.00006C17 4.86006 13.64 1.50006 9.5 1.50006ZM9.5 15.0001C6.1925 15.0001 3.5 12.3076 3.5 9.00006C3.5 5.69256 6.1925 3.00006 9.5 3.00006C12.8075 3.00006 15.5 5.69256 15.5 9.00006C15.5 12.3076 12.8075 15.0001 9.5 15.0001Z" fill="#333333"/>
</g>
</g>
</svg>
