<svg width="22" height="22" viewBox="0 0 22 22" fill="none" xmlns="http://www.w3.org/2000/svg">
<g id="icon/location-pin-active" clip-path="url(#clip0_18574_136992)">
<path id="Vector" d="M11.0007 1.83325C7.45315 1.83325 4.58398 4.70242 4.58398 8.24992C4.58398 13.0624 11.0007 20.1666 11.0007 20.1666C11.0007 20.1666 17.4173 13.0624 17.4173 8.24992C17.4173 4.70242 14.5482 1.83325 11.0007 1.83325ZM6.41732 8.24992C6.41732 5.71992 8.47065 3.66659 11.0007 3.66659C13.5307 3.66659 15.584 5.71992 15.584 8.24992C15.584 10.8899 12.944 14.8408 11.0007 17.3066C9.09398 14.8591 6.41732 10.8624 6.41732 8.24992Z" fill="#333333"/>
<path id="Vector_2" d="M11.0007 10.5416C12.2663 10.5416 13.2923 9.51557 13.2923 8.24992C13.2923 6.98427 12.2663 5.95825 11.0007 5.95825C9.735 5.95825 8.70898 6.98427 8.70898 8.24992C8.70898 9.51557 9.735 10.5416 11.0007 10.5416Z" fill="#333333"/>
</g>
<defs>
<clipPath id="clip0_18574_136992">
<rect width="22" height="22" fill="white"/>
</clipPath>
</defs>
</svg>
