<svg width="24" height="24" viewBox="0 0 24 24" fill="none" xmlns="http://www.w3.org/2000/svg">
<g id="wrapper">
<path id="Union" d="M12.0039 12.0011C14.283 12.0011 16.1289 10.1552 16.1289 7.8761C16.1289 5.59704 14.283 3.7511 12.0039 3.7511C9.72484 3.7511 7.87891 5.59704 7.87891 7.8761C7.87891 10.1552 9.72484 12.0011 12.0039 12.0011ZM12.0039 5.8136C13.1383 5.8136 14.0664 6.74172 14.0664 7.8761C14.0664 9.01047 13.1383 9.9386 12.0039 9.9386C10.8695 9.9386 9.94141 9.01047 9.94141 7.8761C9.94141 6.74172 10.8695 5.8136 12.0039 5.8136ZM12.0039 14.0636C9.25047 14.0636 3.75391 15.4455 3.75391 18.1886V20.2511H20.2539V18.1886C20.2539 15.4455 14.7573 14.0636 12.0039 14.0636ZM5.81641 18.1886C6.04328 17.4461 9.22984 16.1261 12.0039 16.1261C14.7883 16.1261 17.9852 17.4564 18.1914 18.1886H5.81641Z" fill="#333333"/>
</g>
</svg>
