<svg width="28" height="32" viewBox="0 0 28 32" fill="none" xmlns="http://www.w3.org/2000/svg">
<g id="Group">
<g id="Group_2">
<path id="Vector" d="M20.1596 0C20.2341 0 20.3085 0 20.3872 0C20.5699 2.25671 19.7085 3.94291 18.6617 5.16401C17.6345 6.37667 16.2279 7.5528 13.9529 7.37435C13.8012 5.14996 14.664 3.58881 15.7094 2.37053C16.679 1.23515 18.4565 0.224828 20.1596 0Z" fill="black"/>
<path id="Vector_2" d="M27.0455 23.4889C27.0455 23.5113 27.0455 23.531 27.0455 23.5521C26.4061 25.4884 25.4942 27.1479 24.3813 28.688C23.3653 30.0861 22.1203 31.9677 19.8974 31.9677C17.9765 31.9677 16.7006 30.7325 14.7319 30.6988C12.6495 30.6651 11.5043 31.7316 9.60025 32C9.38245 32 9.16465 32 8.95106 32C7.55291 31.7976 6.42456 30.6904 5.60253 29.6927C3.17861 26.7446 1.30551 22.9366 0.957031 18.0635C0.957031 17.5857 0.957031 17.1094 0.957031 16.6316C1.10457 13.144 2.79921 10.3083 5.0517 8.93408C6.24048 8.20339 7.8747 7.5809 9.69439 7.85912C10.4743 7.97996 11.271 8.24695 11.9694 8.51112C12.6312 8.76546 13.4589 9.21652 14.2429 9.19263C14.7741 9.17717 15.3024 8.90035 15.8378 8.70503C17.406 8.13875 18.9432 7.48956 20.9695 7.79448C23.4047 8.16264 25.133 9.24462 26.201 10.914C24.141 12.225 22.5124 14.2007 22.7906 17.5745C23.0379 20.6392 24.8197 22.4322 27.0455 23.4889Z" fill="black"/>
</g>
</g>
</svg>
