<svg width="33" height="24" viewBox="0 0 33 24" fill="none" xmlns="http://www.w3.org/2000/svg">
<g id="Group 392">
<path id="Vector" d="M30.684 0.799988H2.31596C1.31303 0.799988 0.5 1.63055 0.5 2.65509V21.3449C0.5 22.3694 1.31303 23.2 2.31596 23.2H30.684C31.687 23.2 32.5 22.3694 32.5 21.3449V2.65509C32.5 1.63055 31.687 0.799988 30.684 0.799988Z" fill="#E57E25"/>
<path id="Vector_2" d="M31.7643 22.8041C31.9934 22.6252 32.179 22.3947 32.3067 22.1306C32.4344 21.8664 32.5007 21.5758 32.5005 21.2812V2.71879C32.5005 2.20989 32.3026 1.72184 31.9504 1.36199C31.5981 1.00215 31.1203 0.799988 30.6222 0.799988L12.4473 0.799988L31.7256 22.7896L31.7643 22.8041Z" fill="#F29C1F"/>
<path id="Vector_3" d="M20.5532 0.799988H2.37831C1.88015 0.799988 1.4024 1.00215 1.05015 1.36199C0.697894 1.72184 0.5 2.20989 0.5 2.71879V21.2812C0.499801 21.5669 0.562203 21.8491 0.682629 22.107C0.803056 22.3649 0.978454 22.5919 1.19596 22.7716L1.27489 22.7896L20.5532 0.799988Z" fill="#F29C1F"/>
<path id="Vector_4" d="M30.6217 0.799988H2.37831C1.88015 0.799988 1.4024 1.00215 1.05015 1.36199C0.697893 1.72184 0.5 2.20989 0.5 2.71879L0.5 3.45636L14.0545 12.9977C14.7737 13.504 15.6266 13.7751 16.5 13.7751C17.3734 13.7751 18.2263 13.504 18.9455 12.9977L32.5 3.45636V2.71879C32.5 2.20989 32.3021 1.72184 31.9499 1.36199C31.5976 1.00215 31.1198 0.799988 30.6217 0.799988Z" fill="#F0C419"/>
</g>
</svg>
