<svg width="33" height="32" viewBox="0 0 33 32" fill="none" xmlns="http://www.w3.org/2000/svg">
<g id="Group 393">
<path id="Vector" d="M7.59187 19.338L6.478 23.4962L2.40681 23.5823C1.19013 21.3257 0.5 18.7437 0.5 16C0.5 13.3468 1.14525 10.8448 2.289 8.64172H2.28987L5.91437 9.30622L7.50212 12.909C7.16981 13.8778 6.98869 14.9178 6.98869 16C6.98881 17.1745 7.20156 18.2998 7.59187 19.338Z" fill="#FBBB00"/>
<path id="Vector_2" d="M32.2203 13.011C32.404 13.9789 32.4998 14.9784 32.4998 16C32.4998 17.1455 32.3794 18.2629 32.1499 19.3407C31.3711 23.0084 29.3359 26.211 26.5166 28.4774L26.5157 28.4765L21.9504 28.2435L21.3043 24.2101C23.1751 23.113 24.6371 21.396 25.4072 19.3407H16.8516V13.011H25.532H32.2203Z" fill="#518EF8"/>
<path id="Vector_3" d="M26.5152 28.4765L26.5161 28.4774C23.7742 30.6813 20.2911 32 16.4994 32C10.4062 32 5.10869 28.5943 2.40625 23.5824L7.59131 19.3381C8.9425 22.9442 12.4212 25.5113 16.4994 25.5113C18.2524 25.5113 19.8946 25.0374 21.3038 24.2101L26.5152 28.4765Z" fill="#28B446"/>
<path id="Vector_4" d="M26.7128 3.6835L21.5295 7.927C20.0711 7.01537 18.3471 6.48875 16.5001 6.48875C12.3295 6.48875 8.78575 9.17356 7.50225 12.909L2.28994 8.64175H2.28906C4.95194 3.50769 10.3163 0 16.5001 0C20.3822 0 23.9418 1.38287 26.7128 3.6835Z" fill="#F14336"/>
</g>
</svg>
