<svg width="22" height="22" viewBox="0 0 22 22" fill="none" xmlns="http://www.w3.org/2000/svg">
<g id="icon">
<g id="Vector">
<path d="M2.75 5.49998C2.75 4.99372 3.16041 4.58331 3.66667 4.58331H18.3333C18.8396 4.58331 19.25 4.99372 19.25 5.49998C19.25 6.00624 18.8396 6.41665 18.3333 6.41665H3.66667C3.16041 6.41665 2.75 6.00624 2.75 5.49998Z" fill="#525252"/>
<path d="M2.75 11C2.75 10.4937 3.16041 10.0833 3.66667 10.0833H18.3333C18.8396 10.0833 19.25 10.4937 19.25 11C19.25 11.5063 18.8396 11.9166 18.3333 11.9166H3.66667C3.16041 11.9166 2.75 11.5063 2.75 11Z" fill="#525252"/>
<path d="M3.66667 15.5833C3.16041 15.5833 2.75 15.9937 2.75 16.5C2.75 17.0063 3.16041 17.4166 3.66667 17.4166H18.3333C18.8396 17.4166 19.25 17.0063 19.25 16.5C19.25 15.9937 18.8396 15.5833 18.3333 15.5833H3.66667Z" fill="#525252"/>
</g>
</g>
</svg>
