<svg width="24" height="24" viewBox="0 0 24 24" fill="none" xmlns="http://www.w3.org/2000/svg">
<g id="wrapper">
<path id="Union" d="M16.1904 14.5152H15.3097L14.9975 14.2142C16.0901 12.9432 16.7479 11.2931 16.7479 9.4981C16.7479 5.49552 13.5035 2.2511 9.5009 2.2511C5.49833 2.2511 2.25391 5.49552 2.25391 9.4981C2.25391 13.5007 5.49833 16.7451 9.5009 16.7451C11.2959 16.7451 12.946 16.0873 14.217 14.9947L14.5181 15.3068V16.1876L20.0927 21.7511L21.7539 20.0899L16.1904 14.5152ZM9.5009 14.5152C6.72475 14.5152 4.48375 12.2743 4.48375 9.4981C4.48375 6.72194 6.72475 4.48094 9.5009 4.48094C12.2771 4.48094 14.5181 6.72194 14.5181 9.4981C14.5181 12.2743 12.2771 14.5152 9.5009 14.5152Z" fill="#333333"/>
</g>
</svg>
