<svg width="24" height="24" viewBox="0 0 24 24" fill="none" xmlns="http://www.w3.org/2000/svg">
<g id="wrapper">
<g id="Union">
<path d="M2.91292 6.84221C3.33487 7.26417 3.90717 7.50122 4.50391 7.50122C5.10064 7.50122 5.67294 7.26417 6.0949 6.84221C6.51685 6.42025 6.75391 5.84796 6.75391 5.25122C6.75391 4.65448 6.51685 4.08219 6.0949 3.66023C5.67294 3.23827 5.10064 3.00122 4.50391 3.00122C3.90717 3.00122 3.33487 3.23827 2.91292 3.66023C2.49096 4.08219 2.25391 4.65448 2.25391 5.25122C2.25391 5.84796 2.49096 6.42025 2.91292 6.84221Z" fill="#333333"/>
<path d="M10.4129 6.84221C10.8349 7.26417 11.4072 7.50122 12.0039 7.50122C12.6006 7.50122 13.1729 7.26417 13.5949 6.84221C14.0169 6.42025 14.2539 5.84796 14.2539 5.25122C14.2539 4.65448 14.0169 4.08219 13.5949 3.66023C13.1729 3.23827 12.6006 3.00122 12.0039 3.00122C11.4072 3.00122 10.8349 3.23827 10.4129 3.66023C9.99096 4.08219 9.75391 4.65448 9.75391 5.25122C9.75391 5.84796 9.99096 6.42025 10.4129 6.84221Z" fill="#333333"/>
<path d="M17.9129 6.84221C18.3349 7.26417 18.9072 7.50122 19.5039 7.50122C20.1006 7.50122 20.6729 7.26417 21.0949 6.84221C21.5169 6.42025 21.7539 5.84796 21.7539 5.25122C21.7539 4.65448 21.5169 4.08219 21.0949 3.66023C20.6729 3.23827 20.1006 3.00122 19.5039 3.00122C18.9072 3.00122 18.3349 3.23827 17.9129 3.66023C17.491 4.08219 17.2539 4.65448 17.2539 5.25122C17.2539 5.84796 17.491 6.42025 17.9129 6.84221Z" fill="#333333"/>
<path d="M4.50391 14.2512C3.90717 14.2512 3.33487 14.0142 2.91292 13.5922C2.49096 13.1703 2.25391 12.598 2.25391 12.0012C2.25391 11.4045 2.49096 10.8322 2.91292 10.4102C3.33487 9.98827 3.90717 9.75122 4.50391 9.75122C5.10064 9.75122 5.67294 9.98827 6.0949 10.4102C6.51685 10.8322 6.75391 11.4045 6.75391 12.0012C6.75391 12.598 6.51685 13.1703 6.0949 13.5922C5.67294 14.0142 5.10064 14.2512 4.50391 14.2512Z" fill="#333333"/>
<path d="M12.0039 14.2512C11.4072 14.2512 10.8349 14.0142 10.4129 13.5922C9.99096 13.1703 9.75391 12.598 9.75391 12.0012C9.75391 11.4045 9.99096 10.8322 10.4129 10.4102C10.8349 9.98827 11.4072 9.75122 12.0039 9.75122C12.6006 9.75122 13.1729 9.98827 13.5949 10.4102C14.0169 10.8322 14.2539 11.4045 14.2539 12.0012C14.2539 12.598 14.0169 13.1703 13.5949 13.5922C13.1729 14.0142 12.6006 14.2512 12.0039 14.2512Z" fill="#333333"/>
<path d="M19.5039 14.2512C18.9072 14.2512 18.3349 14.0142 17.9129 13.5922C17.491 13.1703 17.2539 12.598 17.2539 12.0012C17.2539 11.4045 17.491 10.8322 17.9129 10.4102C18.3349 9.98827 18.9072 9.75122 19.5039 9.75122C20.1006 9.75122 20.6729 9.98827 21.0949 10.4102C21.5169 10.8322 21.7539 11.4045 21.7539 12.0012C21.7539 12.598 21.5169 13.1703 21.0949 13.5922C20.6729 14.0142 20.1006 14.2512 19.5039 14.2512Z" fill="#333333"/>
<path d="M4.50391 21.0012C3.90717 21.0012 3.33487 20.7642 2.91292 20.3422C2.49096 19.9203 2.25391 19.348 2.25391 18.7512C2.25391 18.1545 2.49096 17.5822 2.91292 17.1602C3.33487 16.7383 3.90717 16.5012 4.50391 16.5012C5.10064 16.5012 5.67294 16.7383 6.0949 17.1602C6.51685 17.5822 6.75391 18.1545 6.75391 18.7512C6.75391 19.348 6.51685 19.9203 6.0949 20.3422C5.67294 20.7642 5.10064 21.0012 4.50391 21.0012Z" fill="#333333"/>
<path d="M12.0039 21.0012C11.4072 21.0012 10.8349 20.7642 10.4129 20.3422C9.99096 19.9203 9.75391 19.348 9.75391 18.7512C9.75391 18.1545 9.99096 17.5822 10.4129 17.1602C10.8349 16.7383 11.4072 16.5012 12.0039 16.5012C12.6006 16.5012 13.1729 16.7383 13.5949 17.1602C14.0169 17.5822 14.2539 18.1545 14.2539 18.7512C14.2539 19.348 14.0169 19.9203 13.5949 20.3422C13.1729 20.7642 12.6006 21.0012 12.0039 21.0012Z" fill="#333333"/>
<path d="M19.5039 21.0012C18.9072 21.0012 18.3349 20.7642 17.9129 20.3422C17.491 19.9203 17.2539 19.348 17.2539 18.7512C17.2539 18.1545 17.491 17.5822 17.9129 17.1602C18.3349 16.7383 18.9072 16.5012 19.5039 16.5012C20.1006 16.5012 20.6729 16.7383 21.0949 17.1602C21.5169 17.5822 21.7539 18.1545 21.7539 18.7512C21.7539 19.348 21.5169 19.9203 21.0949 20.3422C20.6729 20.7642 20.1006 21.0012 19.5039 21.0012Z" fill="#333333"/>
</g>
</g>
</svg>
