<svg width="32" height="32" viewBox="0 0 32 32" fill="none" xmlns="http://www.w3.org/2000/svg">
<g id="wrapper">
<path id="Union" d="M12.4919 14.2436C13.743 16.4416 15.5633 18.2619 17.7612 19.513L18.9399 17.8623C19.1295 17.5969 19.4097 17.4101 19.7276 17.3374C20.0456 17.2647 20.3792 17.311 20.6652 17.4676C22.551 18.4982 24.6335 19.118 26.7759 19.2863C27.1103 19.3128 27.4224 19.4644 27.65 19.7107C27.8776 19.9571 28.0039 20.2802 28.0039 20.6156V26.565C28.004 26.8951 27.8816 27.2135 27.6604 27.4586C27.4392 27.7037 27.135 27.858 26.8066 27.8916C26.0999 27.965 25.3879 28.001 24.6706 28.001C13.2572 28.001 4.00391 18.7476 4.00391 7.33431C4.00391 6.61698 4.03991 5.90498 4.11324 5.19831C4.14691 4.86991 4.30122 4.56567 4.54629 4.34449C4.79137 4.12331 5.10978 4.00091 5.43991 4.00098H11.3892C11.7247 4.00093 12.0478 4.12731 12.2941 4.35491C12.5405 4.58251 12.6921 4.89461 12.7186 5.22898C12.8869 7.37137 13.5067 9.45388 14.5372 11.3396C14.6939 11.6257 14.7402 11.9593 14.6675 12.2772C14.5947 12.5952 14.408 12.8754 14.1426 13.065L12.4919 14.2436ZM9.12924 13.3676L11.6626 11.5583C10.9436 10.0064 10.451 8.35943 10.1999 6.66764H6.68391C6.67591 6.88898 6.67191 7.11164 6.67191 7.33431C6.67057 17.2756 14.7292 25.3343 24.6706 25.3343C24.8932 25.3343 25.1159 25.3303 25.3372 25.321V21.805C23.6455 21.5538 21.9984 21.0613 20.4466 20.3423L18.6372 22.8756C17.9088 22.5926 17.2012 22.2584 16.5199 21.8756L16.4426 21.8316C13.8273 20.3433 11.6616 18.1775 10.1732 15.5623L10.1292 15.485C9.74645 14.8036 9.41228 14.0961 9.12924 13.3676Z" fill="#178477"/>
</g>
</svg>
